<?xml version="1.0" standalone="no"?>
<!DOCTYPE svg PUBLIC "-//W3C//DTD SVG 20010904//EN"
 "http://www.w3.org/TR/2001/REC-SVG-20010904/DTD/svg10.dtd">
<svg version="1.0" xmlns="http://www.w3.org/2000/svg"
 width="150.000000pt" height="150.000000pt" viewBox="0 0 150.000000 150.000000"
 preserveAspectRatio="xMidYMid meet">
<metadata>
Created by potrace 1.11, written by Peter Selinger 2001-2013
</metadata>
<g transform="translate(0.000000,150.000000) scale(0.100000,-0.100000)"
fill="#000000" stroke="none">
<path d="M815 1317 c-81 -24 -164 -87 -196 -150 -15 -28 -19 -55 -18 -104 1
-45 -2 -68 -10 -71 -38 -13 -25 -138 18 -173 14 -12 22 -33 26 -67 4 -43 2
-53 -20 -76 -14 -15 -36 -49 -49 -75 -32 -62 -81 -105 -194 -170 -98 -57 -154
-110 -179 -170 -20 -47 -42 -140 -49 -207 l-5 -54 599 0 599 0 -18 88 c-19 91
-37 150 -62 198 -21 40 -82 100 -121 117 -152 71 -146 66 -174 123 l-26 54 32
32 c44 45 72 80 72 89 0 4 4 18 9 31 5 13 9 26 10 30 1 4 8 26 16 49 8 23 15
56 15 73 0 17 7 49 15 71 20 57 19 172 -3 215 -17 35 -117 123 -162 143 -37
15 -80 17 -125 4z"/>
</g>
</svg>
